<?xml version="1.0" standalone="no"?>
<!DOCTYPE svg PUBLIC "-//W3C//DTD SVG 20010904//EN"
 "http://www.w3.org/TR/2001/REC-SVG-20010904/DTD/svg10.dtd">
<svg version="1.0" xmlns="http://www.w3.org/2000/svg"
 width="340.000000pt" height="340.000000pt" viewBox="0 0 340.000000 340.000000"
 preserveAspectRatio="xMidYMid meet">
<metadata>
Created by potrace 1.11, written by Peter Selinger 2001-2013
</metadata>
<g transform="translate(0.000000,340.000000) scale(0.100000,-0.100000)"
fill="#000000" stroke="none">
<path d="M1102 2400 c3 -14 -80 -21 -89 -7 -3 4 -11 3 -18 -3 -10 -8 -15 -8
-20 0 -5 8 -10 8 -20 0 -10 -8 -15 -8 -20 0 -5 8 -10 8 -20 0 -9 -8 -15 -8
-20 0 -4 6 -12 7 -24 1 -10 -6 -23 -6 -31 -1 -8 5 -19 6 -24 2 -15 -9 -117 -8
-123 1 -3 4 -11 3 -19 -4 -11 -9 -14 -8 -14 2 0 9 -3 10 -8 3 -4 -6 -15 -13
-24 -17 -20 -7 -24 -27 -7 -27 8 0 8 -4 1 -12 -12 -15 -12 -25 -1 -56 6 -15 5
-21 -1 -17 -6 3 -10 2 -10 -4 0 -5 5 -13 10 -16 7 -4 6 -14 -2 -28 -6 -12 -11
-22 -10 -22 0 0 5 -13 11 -28 6 -16 7 -26 2 -22 -6 3 -9 -4 -8 -15 1 -11 5
-20 10 -20 5 0 3 -7 -4 -17 -8 -9 -14 -17 -13 -17 13 -16 21 -45 14 -56 -5 -8
-5 -21 1 -31 5 -11 5 -20 0 -24 -6 -3 -6 -17 -1 -35 5 -19 5 -28 -1 -25 -11 8
-11 3 0 -28 6 -14 7 -27 4 -31 -9 -9 -11 -76 -2 -76 5 0 5 -10 0 -22 -7 -19
-2 -29 30 -60 22 -21 39 -43 39 -49 0 -7 3 -10 6 -7 7 8 62 -45 57 -54 -2 -5
1 -8 7 -8 15 0 41 -26 33 -34 -4 -3 -1 -6 6 -6 15 0 91 -75 91 -89 0 -6 5 -11
11 -11 6 0 29 -19 52 -42 22 -24 44 -42 49 -40 5 1 7 -2 4 -7 -3 -5 8 -21 25
-35 17 -14 27 -26 22 -26 -4 0 4 -8 20 -18 15 -10 24 -22 20 -25 -3 -4 1 -7 9
-7 9 0 25 -15 37 -32 11 -18 21 -30 21 -25 0 4 8 -1 18 -10 11 -10 17 -21 15
-25 -2 -5 3 -8 12 -8 9 0 13 -4 10 -10 -3 -5 3 -10 15 -10 12 0 18 -5 15 -10
-3 -6 1 -13 9 -16 9 -3 16 -13 16 -21 0 -8 5 -11 10 -8 6 3 10 -1 10 -9 0 -9
4 -16 8 -16 14 0 52 -36 52 -49 0 -6 7 -11 16 -11 8 0 12 -4 9 -10 -3 -5 1
-10 10 -10 9 0 19 -9 22 -20 3 -11 9 -20 13 -20 4 0 19 -11 35 -26 15 -14 30
-23 33 -20 3 3 6 347 6 765 l1 759 -23 -4 c-16 -3 -21 -1 -16 7 4 7 3 9 -4 5
-19 -11 -102 -14 -95 -3 4 6 1 7 -8 2 -18 -12 -81 -13 -96 -2 -6 4 -14 3 -18
-3 -3 -5 -11 -10 -16 -10 -6 0 -7 4 -4 10 4 6 -2 7 -17 1 -14 -5 -31 -5 -40 0
-11 6 -19 5 -23 -1 -3 -5 -11 -10 -16 -10 -6 0 -8 4 -4 9 3 5 1 13 -5 16 -6 4
-9 1 -8 -5z m-374 -87 c6 -2 12 1 12 5 0 4 9 8 20 8 11 0 20 -4 20 -8 0 -5 9
-4 20 2 11 6 20 7 20 2 0 -4 9 -8 20 -8 11 0 20 3 20 6 0 3 17 4 38 2 51 -4
54 -4 82 -2 14 1 37 -1 53 -3 15 -2 27 -1 27 3 0 8 37 6 46 -3 4 -4 13 -2 21
4 8 8 13 8 13 1 0 -11 18 -11 38 1 6 5 12 4 12 -2 0 -7 8 -7 23 -2 13 5 30 5
37 1 8 -5 22 -4 31 1 11 6 20 5 24 -1 4 -7 13 -7 26 0 14 8 19 7 19 -2 0 -9 3
-9 12 0 8 8 15 9 25 1 10 -9 13 -8 13 1 0 10 3 10 15 0 8 -7 13 -16 10 -20 -3
-5 -1 -20 5 -35 5 -14 7 -24 2 -22 -4 3 -7 -271 -6 -608 1 -554 -1 -612 -15
-610 -9 1 -15 8 -14 14 2 6 -1 10 -7 8 -5 -1 -27 17 -48 40 -22 23 -42 40 -46
36 -3 -3 -6 1 -6 10 0 8 -9 18 -20 22 -11 3 -19 9 -17 13 3 11 -81 92 -96 92
-7 0 -6 4 3 10 11 7 12 10 2 10 -7 0 -66 53 -130 118 -64 64 -121 116 -127
114 -5 -2 -7 -1 -3 3 4 4 -29 43 -73 86 -43 44 -79 85 -79 91 0 6 -3 8 -6 5
-8 -7 -44 31 -44 45 0 5 -3 7 -8 4 -10 -6 -9 556 2 573 5 7 11 9 15 5 3 -5 12
-10 19 -11z"/>
<path d="M1910 2390 c-7 -4 -22 -7 -32 -5 -15 3 -18 -3 -19 -33 -6 -308 -2
-1222 6 -1222 7 0 7 -3 0 -8 -12 -8 -14 -212 -2 -212 5 0 5 -9 2 -20 -7 -23
10 -28 19 -5 3 8 13 15 22 15 10 0 15 2 12 5 -7 7 55 73 63 69 3 -2 12 8 19
21 7 13 17 22 22 19 4 -3 8 0 8 6 0 15 25 40 40 40 6 0 8 5 5 10 -3 6 2 10 11
10 10 0 14 3 11 6 -8 8 31 44 46 44 6 0 8 3 4 6 -7 8 36 53 46 47 4 -2 7 3 7
12 0 9 5 13 10 10 6 -3 10 -1 10 5 0 15 26 41 34 33 3 -4 6 -1 6 5 0 16 76 92
92 92 6 0 9 3 6 6 -7 7 64 80 75 76 4 -1 7 2 7 8 0 14 77 90 91 90 7 0 10 3 6
6 -8 8 25 44 35 38 4 -3 8 0 8 5 0 14 123 137 133 133 5 -1 6 2 2 8 -3 5 -2
10 2 10 5 0 8 36 8 80 0 48 4 80 10 80 6 0 6 3 -1 8 -12 8 -12 191 0 211 6 9
5 12 -1 8 -5 -3 -9 14 -9 44 1 27 6 49 11 49 6 0 5 3 -1 8 -14 9 -13 104 1
114 6 5 5 8 -3 8 -8 0 -11 9 -8 25 5 25 3 26 -44 30 -8 0 -21 5 -29 9 -9 6
-12 5 -8 -1 7 -11 -91 -11 -109 0 -6 3 -14 4 -18 0 -9 -9 -217 -10 -223 0 -2
4 -9 4 -15 1 -15 -10 -99 -11 -104 -2 -3 5 -9 6 -13 4 -17 -11 -61 -14 -67 -5
-3 5 -9 7 -13 5 -16 -10 -61 -14 -66 -6 -3 5 -16 6 -28 2 -26 -9 -38 -9 -52 0
-6 4 -17 3 -25 -2z m745 -73 c7 -7 12 -29 11 -49 -2 -21 2 -38 7 -38 5 0 4 -7
-3 -15 -10 -12 -10 -15 1 -15 9 0 10 -3 4 -8 -12 -8 -14 -102 -2 -102 4 0 3
-8 -2 -18 -7 -13 -6 -23 1 -30 7 -7 8 -12 2 -12 -10 0 -10 -132 1 -149 3 -6 2
-11 -2 -11 -5 0 -8 -28 -7 -62 1 -62 0 -64 -43 -105 -23 -22 -43 -46 -43 -52
0 -6 -4 -10 -9 -8 -5 1 -9 -2 -9 -7 0 -5 -12 -16 -26 -26 -15 -9 -23 -20 -19
-23 3 -4 -1 -7 -10 -7 -8 0 -19 -9 -22 -21 -4 -11 -9 -18 -12 -16 -6 7 -61
-47 -56 -55 2 -5 -3 -8 -12 -8 -9 0 -13 -4 -10 -10 3 -5 2 -10 -3 -10 -14 0
-61 -47 -54 -54 3 -4 -4 -9 -16 -13 -12 -3 -22 -12 -22 -20 0 -8 -3 -13 -7
-11 -10 5 -62 -49 -55 -56 3 -4 1 -6 -5 -6 -5 0 -22 -11 -37 -25 -15 -14 -23
-25 -19 -25 4 0 -4 -8 -20 -18 -15 -10 -26 -20 -24 -23 1 -2 -12 -18 -30 -36
-18 -17 -33 -29 -33 -27 0 3 -11 -7 -25 -22 -14 -15 -25 -31 -25 -35 0 -5 -8
-9 -17 -9 -9 0 -13 -3 -10 -6 8 -8 -63 -65 -73 -59 -9 6 -7 46 4 64 6 9 5 12
-1 8 -14 -9 -12 96 1 105 8 5 8 8 0 8 -13 0 -13 188 0 209 6 9 5 12 0 8 -6 -3
-10 33 -10 93 -1 63 3 97 9 93 6 -4 7 -1 1 8 -12 19 -13 239 -1 232 6 -4 7 -1
1 8 -12 20 -12 379 1 379 7 0 7 3 0 8 -12 8 -14 74 -2 83 4 3 168 6 364 7 256
0 359 -3 368 -11z"/>
</g>
</svg>
